<svg width="370" height="287" viewBox="0 0 370 287" fill="none" xmlns="http://www.w3.org/2000/svg">
<path d="M58 61V218" stroke="black" stroke-width="3" stroke-linecap="round"/>
<path d="M2.00001 100C0.312102 99.1561 4.64589 95.5497 5.00001 95.3333C17.6397 87.6091 35.1441 84.1544 49.2222 80.1111C65.3972 75.4656 81.5486 73.5483 98.1667 77.6667C115.199 81.8876 125.37 92.081 133.778 107.444C146.604 130.88 155.701 158.477 149 185.333C143.517 207.307 131.94 222.615 115.833 238.056C97.9922 255.159 73.0828 271.357 46.8889 264.778C38.5016 262.671 26.0864 253.934 23 245C17.873 230.159 32.2863 215.475 41.7222 206.889C57.8309 192.231 77.0507 183.829 98.3333 180.222C117.213 177.022 136.49 177.984 155.222 173.444C168.936 170.121 183.532 162.614 194.278 153.444C194.525 153.234 201.121 144.136 200 144.222C197.596 144.407 197 146.584 197 148.5C197 152.035 199.177 160.603 203.278 160.944C210.332 161.532 216.615 154.252 221.111 149.889C224.515 146.586 228.016 143.149 231 139.444C233.31 136.576 231.772 139.39 231.111 142.333C230.315 145.878 223.606 168.697 231.889 167.944C242.371 166.991 253.711 154.789 259 146.556C260.083 144.87 261.706 136.083 264.444 139.278C271.64 147.673 277.859 158.646 288.056 163.833C294.205 166.962 300.869 160.876 305.222 157.222C306.266 156.346 309.399 153.117 311.222 152.667C313.867 152.013 316.417 155.057 318.944 155.389C334.263 157.398 344.72 128.679 347.667 118.444C353.144 99.4217 352.735 79.0627 352.833 59.5C352.917 42.7392 354.03 24.5886 351.556 7.8889C351.411 6.91074 350.467 0.676931 347 2.33334C334.61 8.25214 322.723 32.2153 317.667 41.7778C303.477 68.6157 294.787 90.5258 284.389 119.444C273.232 150.473 262.204 183.253 256.444 215.889C252.673 237.263 258.995 260.983 277.889 273.778C294.732 285.183 319.065 288.865 338.444 281.889C357.539 275.015 365.865 257.054 367.389 238.222C369.156 216.385 356.941 195.229 333.556 192.778C321.793 191.545 307.381 195.119 296.667 198.333C268.26 206.855 241.173 219.442 213.889 230.889C203.131 235.402 194.647 239.203 183.611 242.167C173.498 244.882 163.151 245.425 152.889 247.222C150.309 247.674 143.515 250.172 146 251" stroke="black" stroke-width="3" stroke-linecap="round"/>
</svg>
